<svg width="24" height="24" viewBox="0 0 24 24" fill="none" xmlns="http://www.w3.org/2000/svg">
<path d="M21 6.17584C17.67 5.8541 14.32 5.68835 10.98 5.68835C9 5.68835 7.02 5.78585 5.04 5.98085L3 6.17584" stroke="#EA4335" stroke-width="1.5" stroke-linecap="round" stroke-linejoin="round"/>
<path d="M8.5 5.19122L8.72 3.91416C8.88 2.98805 9 2.2959 10.69 2.2959H13.31C15 2.2959 15.13 3.02704 15.28 3.92391L15.5 5.19122" stroke="#EA4335" stroke-width="1.5" stroke-linecap="round" stroke-linejoin="round"/>
<path d="M18.8499 9.25635L18.1999 19.0731C18.0899 20.6037 17.9999 21.793 15.2099 21.793H8.7899C5.9999 21.793 5.9099 20.6037 5.7999 19.0731L5.1499 9.25635" stroke="#EA4335" stroke-width="1.5" stroke-linecap="round" stroke-linejoin="round"/>
<path d="M10.3301 16.4313H13.6601" stroke="#EA4335" stroke-width="1.5" stroke-linecap="round" stroke-linejoin="round"/>
<path d="M9.5 12.5319H14.5" stroke="#EA4335" stroke-width="1.5" stroke-linecap="round" stroke-linejoin="round"/>
</svg>
