<svg width="24" height="24" viewBox="0 0 24 24" fill="none" xmlns="http://www.w3.org/2000/svg">
<path d="M9 21L9.5 14H15V21H21V10L12 3L3 10V21H9Z" fill="white"/>
<path d="M10.3917 2.55954C10.8421 2.19814 11.4116 2 12 2C12.5884 2 13.1579 2.19814 13.6083 2.55954L21.1083 8.58114C21.3875 8.80513 21.612 9.08472 21.766 9.4003C21.92 9.71589 21.9999 10.0598 22 10.408V20.4095C22 20.8316 21.8244 21.2363 21.5118 21.5347C21.1993 21.8332 20.7754 22.0008 20.3333 22.0008H15.75C15.308 22.0008 14.884 21.8332 14.5715 21.5347C14.2589 21.2363 14.0833 20.8316 14.0833 20.4095V14.8398H9.91667V20.4095C9.91667 20.8316 9.74107 21.2363 9.42851 21.5347C9.11595 21.8332 8.69203 22.0008 8.25 22.0008H3.66667C3.22464 22.0008 2.80072 21.8332 2.48816 21.5347C2.17559 21.2363 2 20.8316 2 20.4095V10.4072C2.00009 10.059 2.07995 9.71509 2.23399 9.39951C2.38802 9.08392 2.61249 8.80434 2.89167 8.58035L10.3917 2.55875V2.55954ZM12.5367 3.77691C12.3864 3.65617 12.1964 3.58995 12 3.58995C11.8036 3.58995 11.6136 3.65617 11.4633 3.77691L3.96333 9.8001C3.87063 9.87461 3.79606 9.96753 3.74482 10.0724C3.69358 10.1772 3.66691 10.2915 3.66667 10.4072V20.4087H8.25V14.8391C8.25 14.417 8.42559 14.0122 8.73816 13.7138C9.05072 13.4154 9.47464 13.2477 9.91667 13.2477H14.0833C14.5254 13.2477 14.9493 13.4154 15.2618 13.7138C15.5744 14.0122 15.75 14.417 15.75 14.8391V20.4087H20.3333V10.4072C20.3333 10.2912 20.3068 10.1767 20.2555 10.0715C20.2043 9.96637 20.1296 9.8732 20.0367 9.79851L12.5367 3.77691Z" fill="white"/>
</svg>
