<svg width="20" height="20" viewBox="0 0 20 20" fill="none" xmlns="http://www.w3.org/2000/svg">
<path d="M8.39167 0.559545C8.84211 0.198137 9.41163 0 10 0C10.5884 0 11.1579 0.198137 11.6083 0.559545L19.1083 6.58114C19.3875 6.80513 19.612 7.08472 19.766 7.4003C19.92 7.71589 19.9999 8.05982 20 8.40799V18.4095C20 18.8316 19.8244 19.2363 19.5118 19.5347C19.1993 19.8332 18.7754 20.0008 18.3333 20.0008H13.75C13.308 20.0008 12.884 19.8332 12.5715 19.5347C12.2589 19.2363 12.0833 18.8316 12.0833 18.4095V12.8398H7.91667V18.4095C7.91667 18.8316 7.74107 19.2363 7.42851 19.5347C7.11595 19.8332 6.69203 20.0008 6.25 20.0008H1.66667C1.22464 20.0008 0.800716 19.8332 0.488155 19.5347C0.175595 19.2363 0 18.8316 0 18.4095V8.4072C9.22164e-05 8.05903 0.0799548 7.71509 0.233988 7.39951C0.38802 7.08392 0.612494 6.80434 0.891667 6.58035L8.39167 0.558749V0.559545ZM10.5367 1.77691C10.3864 1.65617 10.1964 1.58995 10 1.58995C9.80363 1.58995 9.61356 1.65617 9.46333 1.77691L1.96333 7.8001C1.87063 7.87461 1.79606 7.96753 1.74482 8.07238C1.69358 8.17724 1.66691 8.29149 1.66667 8.4072V18.4087H6.25V12.8391C6.25 12.417 6.42559 12.0122 6.73816 11.7138C7.05072 11.4154 7.47464 11.2477 7.91667 11.2477H12.0833C12.5254 11.2477 12.9493 11.4154 13.2618 11.7138C13.5744 12.0122 13.75 12.417 13.75 12.8391V18.4087H18.3333V8.4072C18.3333 8.29123 18.3068 8.17666 18.2555 8.07152C18.2043 7.96637 18.1296 7.8732 18.0367 7.79851L10.5367 1.77691Z" fill="white"/>
</svg>
