<svg width="26" height="26" viewBox="0 0 26 26" fill="none" xmlns="http://www.w3.org/2000/svg">
<path d="M7.6 11.6667H4.12C3.44794 11.6667 3.11191 11.6667 2.85521 11.812C2.62942 11.9398 2.44584 12.1438 2.33079 12.3947C2.2 12.6799 2.2 13.0533 2.2 13.8V25M18.4 11.6667H21.88C22.5521 11.6667 22.8881 11.6667 23.1448 11.812C23.3706 11.9398 23.5542 12.1438 23.6692 12.3947C23.8 12.6799 23.8 13.0533 23.8 13.8V25M18.4 25V5.26667C18.4 3.77319 18.4 3.02646 18.1384 2.45603C17.9083 1.95426 17.5412 1.54631 17.0896 1.29065C16.5762 1 15.9041 1 14.56 1H11.44C10.0959 1 9.42381 1 8.91042 1.29065C8.45883 1.54631 8.09168 1.95426 7.86158 2.45603C7.6 3.02646 7.6 3.77319 7.6 5.26667V25M25 25H1M11.8 6.33333H14.2M11.8 11.6667H14.2M11.8 17H14.2" stroke="#292D32" stroke-width="2" stroke-linecap="round" stroke-linejoin="round"/>
</svg>
