<svg width="20" height="20" viewBox="0 0 20 20" fill="none" xmlns="http://www.w3.org/2000/svg">
<path fill-rule="evenodd" clip-rule="evenodd" d="M10.8334 2.55C14.3084 2.93333 17.0667 5.69167 17.45 9.16667H19.1667V10.8333H17.45C17.0667 14.3083 14.3084 17.0667 10.8334 17.45V19.1667H9.16671V17.45C5.69171 17.0667 2.93337 14.3083 2.55004 10.8333H0.833374V9.16667H2.55004C2.93337 5.69167 5.69171 2.93333 9.16671 2.55V0.833333H10.8334V2.55ZM4.16671 10C4.16671 13.225 6.77504 15.8333 10 15.8333C13.225 15.8333 15.8334 13.225 15.8334 10C15.8334 6.775 13.225 4.16667 10 4.16667C6.77504 4.16667 4.16671 6.775 4.16671 10Z" fill="#454545"/>
</svg>
