<svg width="36" height="38" viewBox="0 0 36 38" fill="none" xmlns="http://www.w3.org/2000/svg">
<path d="M18.03 4.60754C13.065 4.60754 9.03001 8.86671 9.03001 14.1075V18.6834C9.03001 19.6492 8.64001 21.1217 8.17501 21.945L6.45001 24.9692C5.38501 26.8375 6.12001 28.9117 8.07001 29.6084C14.535 31.8884 21.51 31.8884 27.975 29.6084C29.79 28.975 30.585 26.7109 29.595 24.9692L27.87 21.945C27.42 21.1217 27.03 19.6492 27.03 18.6834V14.1075C27.03 8.88254 22.98 4.60754 18.03 4.60754Z" stroke="#106517" stroke-width="1.5" stroke-miterlimit="10" stroke-linecap="round"/>
<path d="M20.805 5.06666C20.34 4.92416 19.86 4.81332 19.365 4.74999C17.925 4.55999 16.545 4.67082 15.255 5.06666C15.69 3.89499 16.77 3.07166 18.03 3.07166C19.29 3.07166 20.37 3.89499 20.805 5.06666Z" stroke="#106517" stroke-width="1.5" stroke-miterlimit="10" stroke-linecap="round" stroke-linejoin="round"/>
<path d="M22.53 30.1783C22.53 32.7908 20.505 34.9283 18.03 34.9283C16.8 34.9283 15.66 34.39 14.85 33.535C14.04 32.68 13.53 31.4767 13.53 30.1783" stroke="#106517" stroke-width="1.5" stroke-miterlimit="10"/>
</svg>
