<svg width="48" height="48" viewBox="0 0 48 48" fill="none" xmlns="http://www.w3.org/2000/svg">
<rect width="48" height="48" rx="8" fill="#106517"/>
<path d="M14.6667 21.3333H17.3333C20 21.3333 21.3333 20 21.3333 17.3333V14.6667C21.3333 12 20 10.6667 17.3333 10.6667H14.6667C12 10.6667 10.6667 12 10.6667 14.6667V17.3333C10.6667 20 12 21.3333 14.6667 21.3333Z" stroke="white" stroke-width="1.5" stroke-miterlimit="10" stroke-linecap="round" stroke-linejoin="round"/>
<path d="M30.6667 21.3333H33.3333C36 21.3333 37.3333 20 37.3333 17.3333V14.6667C37.3333 12 36 10.6667 33.3333 10.6667H30.6667C28 10.6667 26.6667 12 26.6667 14.6667V17.3333C26.6667 20 28 21.3333 30.6667 21.3333Z" stroke="white" stroke-width="1.5" stroke-miterlimit="10" stroke-linecap="round" stroke-linejoin="round"/>
<path d="M30.6667 37.3333H33.3333C36 37.3333 37.3333 36 37.3333 33.3333V30.6667C37.3333 28 36 26.6667 33.3333 26.6667H30.6667C28 26.6667 26.6667 28 26.6667 30.6667V33.3333C26.6667 36 28 37.3333 30.6667 37.3333Z" stroke="white" stroke-width="1.5" stroke-miterlimit="10" stroke-linecap="round" stroke-linejoin="round"/>
<path d="M14.6667 37.3333H17.3333C20 37.3333 21.3333 36 21.3333 33.3333V30.6667C21.3333 28 20 26.6667 17.3333 26.6667H14.6667C12 26.6667 10.6667 28 10.6667 30.6667V33.3333C10.6667 36 12 37.3333 14.6667 37.3333Z" stroke="white" stroke-width="1.5" stroke-miterlimit="10" stroke-linecap="round" stroke-linejoin="round"/>
</svg>
