<svg width="48" height="48" viewBox="0 0 48 48" fill="none" xmlns="http://www.w3.org/2000/svg">
<rect width="48" height="48" rx="8" fill="#106517"/>
<path d="M18 22.6667H14.1334C13.3866 22.6667 13.0132 22.6667 12.728 22.812C12.4772 22.9398 12.2732 23.1438 12.1453 23.3947C12 23.6799 12 24.0533 12 24.8V36M30 22.6667H33.8667C34.6134 22.6667 34.9868 22.6667 35.272 22.812C35.5229 22.9398 35.7269 23.1438 35.8547 23.3947C36 23.6799 36 24.0533 36 24.8V36M30 36V16.2667C30 14.7732 30 14.0265 29.7094 13.456C29.4537 12.9543 29.0458 12.5463 28.544 12.2906C27.9736 12 27.2268 12 25.7334 12H22.2667C20.7732 12 20.0265 12 19.456 12.2906C18.9543 12.5463 18.5463 12.9543 18.2907 13.456C18 14.0265 18 14.7732 18 16.2667V36M37.3334 36H10.6667M22.6667 17.3333H25.3334M22.6667 22.6667H25.3334M22.6667 28H25.3334" stroke="white" stroke-width="2" stroke-linecap="round" stroke-linejoin="round"/>
</svg>
