<svg width="28" height="28" viewBox="0 0 28 28" fill="none" xmlns="http://www.w3.org/2000/svg">
<path d="M25.6667 19.5301V5.44839C25.6667 4.04839 24.5234 3.01006 23.135 3.12672H23.065C20.615 3.33672 16.8934 4.58506 14.8167 5.89172L14.6184 6.02006C14.28 6.23006 13.72 6.23006 13.3817 6.02006L13.09 5.84506C11.0134 4.55006 7.30337 3.31339 4.85337 3.11506C3.46504 2.99839 2.33337 4.04839 2.33337 5.43672V19.5301C2.33337 20.6501 3.24337 21.7001 4.36337 21.8401L4.70171 21.8867C7.23337 22.2251 11.1417 23.5084 13.3817 24.7334L13.4284 24.7567C13.7434 24.9317 14.245 24.9317 14.5484 24.7567C16.7884 23.5201 20.7084 22.2251 23.2517 21.8867L23.6367 21.8401C24.7567 21.7001 25.6667 20.6501 25.6667 19.5301Z" stroke="#106517" stroke-width="1.5" stroke-linecap="round" stroke-linejoin="round"/>
<path d="M14 6.40503V23.905" stroke="#106517" stroke-width="1.5" stroke-linecap="round" stroke-linejoin="round"/>
<path d="M9.04163 9.90503H6.41663" stroke="#106517" stroke-width="1.5" stroke-linecap="round" stroke-linejoin="round"/>
<path d="M9.91663 13.405H6.41663" stroke="#106517" stroke-width="1.5" stroke-linecap="round" stroke-linejoin="round"/>
</svg>
