<svg width="30" height="30" viewBox="0 0 30 30" fill="none" xmlns="http://www.w3.org/2000/svg">
<path d="M8.7 13.4444H4.64C3.85593 13.4444 3.46389 13.4444 3.16441 13.614C2.90099 13.7631 2.68681 14.0011 2.55259 14.2938C2.4 14.6265 2.4 15.0621 2.4 15.9333V29M21.3 13.4444H25.36C26.1441 13.4444 26.5361 13.4444 26.8356 13.614C27.099 13.7631 27.3132 14.0011 27.4474 14.2938C27.6 14.6265 27.6 15.0621 27.6 15.9333V29M21.3 29V5.97778C21.3 4.23539 21.3 3.3642 20.9948 2.6987C20.7264 2.1133 20.298 1.63736 19.7712 1.33909C19.1722 1 18.3881 1 16.82 1H13.18C11.6119 1 10.8278 1 10.2288 1.33909C9.70197 1.63736 9.27363 2.1133 9.00518 2.6987C8.7 3.3642 8.7 4.23539 8.7 5.97778V29M29 29H1M13.6 7.22222H16.4M13.6 13.4444H16.4M13.6 19.6667H16.4" stroke="#106517" stroke-width="2" stroke-linecap="round" stroke-linejoin="round"/>
</svg>
