<svg width="30" height="30" viewBox="0 0 30 30" fill="none" xmlns="http://www.w3.org/2000/svg">
<path d="M1 14.6231C1 12.2543 1 11.0699 1.54892 10.0287C2.09785 8.98761 3.12873 8.2168 5.1905 6.67517L7.1905 5.17972C10.9171 2.39324 12.7805 1 15 1C17.2195 1 19.0829 2.39324 22.8095 5.17972L24.8095 6.67517C26.8713 8.2168 27.9022 8.98761 28.4511 10.0287C29 11.0699 29 12.2543 29 14.6231V22.0213C29 25.3111 29 26.956 27.8284 27.978C26.6569 29 24.7712 29 21 29H9C5.22876 29 3.34315 29 2.17157 27.978C1 26.956 1 25.3111 1 22.0213V14.6231Z" stroke="#33363F" stroke-width="2"/>
<path d="M20 28.7203V20C20 19.4477 19.5523 19 19 19H11C10.4477 19 10 19.4477 10 20V28.7203" stroke="#33363F" stroke-width="2" stroke-linecap="round" stroke-linejoin="round"/>
</svg>
