<svg width="48" height="48" viewBox="0 0 48 48" fill="none" xmlns="http://www.w3.org/2000/svg">
<path d="M18.8347 27.1554C19.4267 29.4557 21.5149 31.1554 24 31.1554C26.4851 31.1554 28.5733 29.4557 29.1653 27.1554M22.6903 12.1741L13.6472 19.2076C13.0427 19.6778 12.7404 19.9128 12.5227 20.2072C12.3298 20.468 12.1861 20.7618 12.0987 21.0742C12 21.4268 12 21.8097 12 22.5755V32.2221C12 33.7156 12 34.4623 12.2906 35.0327C12.5463 35.5345 12.9543 35.9424 13.456 36.1981C14.0265 36.4887 14.7732 36.4887 16.2667 36.4887H31.7333C33.2268 36.4887 33.9735 36.4887 34.544 36.1981C35.0457 35.9424 35.4537 35.5345 35.7094 35.0327C36 34.4623 36 33.7156 36 32.2221V22.5755C36 21.8097 36 21.4268 35.9013 21.0742C35.8139 20.7618 35.6702 20.468 35.4773 20.2072C35.2596 19.9128 34.9573 19.6778 34.3528 19.2076L25.3097 12.1741C24.8413 11.8098 24.6071 11.6276 24.3485 11.5576C24.1203 11.4958 23.8797 11.4958 23.6515 11.5576C23.3929 11.6276 23.1587 11.8098 22.6903 12.1741Z" stroke="#565656" stroke-width="2" stroke-linecap="round" stroke-linejoin="round"/>
</svg>
